<?xml version="1.0" standalone="no"?>
<!DOCTYPE svg PUBLIC "-//W3C//DTD SVG 20010904//EN"
 "http://www.w3.org/TR/2001/REC-SVG-20010904/DTD/svg10.dtd">
<svg version="1.0" xmlns="http://www.w3.org/2000/svg"
 width="328.000000pt" height="328.000000pt" viewBox="0 0 328.000000 328.000000"
 preserveAspectRatio="xMidYMid meet">

<g transform="translate(0.000000,328.000000) scale(0.100000,-0.100000)"
fill="#000000" stroke="none">
<path d="M1750 2579 c-25 -4 -48 -5 -52 -2 -4 2 -30 -13 -58 -34 -35 -26 -46
-40 -37 -46 8 -6 6 -7 -5 -3 -24 7 -54 -4 -37 -14 8 -6 -2 -15 -29 -29 -22
-11 -44 -26 -48 -32 -4 -8 -16 6 -30 36 -18 35 -21 52 -13 66 14 27 -24 63
-59 56 -88 -18 -132 -30 -215 -57 -95 -32 -127 -50 -90 -50 11 0 26 7 34 16 8
9 25 14 46 12 19 -1 37 2 41 8 8 13 46 34 60 34 5 0 22 -25 38 -56 26 -51 27
-57 12 -68 -16 -12 -16 -14 1 -28 10 -9 27 -20 37 -26 18 -10 18 -11 -1 -17
-11 -4 -30 -11 -43 -16 -20 -8 -32 -1 -91 54 -68 62 -97 105 -63 92 13 -5 14
-4 5 6 -13 13 -46 -20 -126 -120 -42 -53 -43 -53 -21 4 4 11 8 30 9 42 l1 23
-23 -22 c-20 -18 -23 -19 -23 -5 0 22 -6 21 -40 -3 -21 -15 -26 -25 -22 -46 4
-23 8 -25 33 -20 33 6 40 -9 9 -19 -17 -5 -18 -10 -9 -27 41 -76 408 -137 749
-125 96 4 202 11 235 17 33 6 76 13 95 16 19 3 60 11 90 18 l55 14 -62 1 c-34
1 -63 5 -65 9 -1 5 -18 5 -36 0 -18 -5 -31 -12 -28 -17 3 -4 -5 -7 -17 -6 -14
1 -21 8 -20 19 1 12 -4 15 -14 11 -9 -3 -35 4 -60 16 -24 11 -71 23 -106 26
-65 6 -114 22 -67 23 24 0 23 1 -10 29 -19 16 -36 25 -38 20 -2 -5 -15 -9 -28
-9 -14 0 -22 -4 -19 -10 3 -5 1 -10 -5 -10 -17 0 -42 -28 -35 -40 3 -5 -10 -1
-29 11 -20 12 -36 25 -36 29 0 4 -10 6 -22 2 -20 -5 -21 -4 -10 11 8 9 11 20
8 25 -8 13 24 38 59 46 17 4 37 13 45 21 8 7 31 16 50 19 22 5 30 4 22 -2 -11
-7 -9 -10 7 -15 36 -9 23 -27 -20 -27 -28 0 -39 -4 -36 -12 4 -15 177 -22 177
-7 0 12 35 6 54 -10 22 -19 20 -28 -8 -33 -15 -3 -27 0 -30 8 -3 8 -17 14 -31
14 -21 0 -25 -5 -25 -29 0 -33 14 -41 74 -41 23 0 50 -6 61 -13 33 -23 118
-48 128 -38 5 5 4 18 -3 31 l-12 23 31 -22 c17 -12 33 -26 36 -31 4 -6 45 -10
92 -10 74 0 93 4 147 30 65 32 82 44 105 73 12 15 12 18 1 15 -8 -2 -16 6 -18
17 -6 28 -29 52 -64 64 -27 10 -29 9 -23 -12 5 -16 4 -18 -3 -8 -6 8 -23 15
-39 17 l-28 3 28 -22 c15 -13 27 -26 27 -29 0 -11 -108 52 -114 67 -6 17 -53
20 -76 5 -11 -7 -5 -10 25 -11 39 -1 39 -1 10 -9 -16 -4 -43 -11 -58 -14 -16
-4 -40 -19 -54 -34 l-26 -27 17 32 c9 17 21 35 26 38 8 5 7 12 -2 23 -10 12
-10 14 0 8 7 -4 33 2 59 15 l47 23 -35 12 c-39 14 -168 18 -188 5 -8 -5 -10
-14 -6 -21 5 -9 4 -11 -3 -6 -11 7 -14 3 -16 -26 -1 -7 -12 -19 -24 -25 -21
-11 -28 -9 -56 12 -18 14 -39 25 -47 25 -11 0 -11 2 -1 8 14 9 -48 32 -87 32
-28 0 -26 11 5 34 21 15 28 16 34 5 10 -16 76 -17 91 -2 20 20 5 29 -41 22z
m-360 -79 c0 -12 -28 -25 -36 -17 -9 9 6 27 22 27 8 0 14 -5 14 -10z m517 -26
c-3 -3 -12 -4 -19 -1 -8 3 -5 6 6 6 11 1 17 -2 13 -5z m-772 -44 c3 -5 1 -10
-4 -10 -6 0 -11 5 -11 10 0 6 2 10 4 10 3 0 8 -4 11 -10z m650 0 c3 -5 -1 -10
-9 -10 -8 0 -18 5 -21 10 -3 6 1 10 9 10 8 0 18 -4 21 -10z m-345 -80 c0 -5
-2 -10 -4 -10 -3 0 -8 5 -11 10 -3 6 -1 10 4 10 6 0 11 -4 11 -10z m-272 -14
c-10 -7 -14 -16 -8 -22 5 -5 2 -15 -7 -23 -13 -12 -14 -11 -8 9 6 17 4 21 -6
15 -8 -5 -5 1 5 13 11 12 24 22 30 22 6 0 3 -6 -6 -14z m782 -33 c0 -7 -4 -13
-9 -13 -5 0 -11 6 -14 13 -3 8 1 14 9 14 8 0 14 -6 14 -14z m-295 -3 c3 -5 -1
-10 -9 -10 -9 0 -16 -4 -16 -10 0 -5 -5 -10 -10 -10 -6 0 -5 8 2 20 14 22 24
25 33 10z m-385 -24 c0 -3 -4 -8 -10 -11 -5 -3 -10 -1 -10 4 0 6 5 11 10 11 6
0 10 -2 10 -4z m323 -46 c-10 -11 -21 -20 -25 -20 -4 0 0 9 9 20 10 11 21 20
25 20 4 0 0 -9 -9 -20z m7 -45 c-7 -9 -15 -13 -17 -11 -7 7 7 26 19 26 6 0 6
-6 -2 -15z"/>
<path d="M1807 2517 c-3 -9 -2 -19 4 -23 15 -9 18 -2 9 20 -6 17 -7 18 -13 3z"/>
<path d="M1458 2502 c-6 -22 1 -44 13 -36 12 7 12 41 0 48 -5 3 -11 -2 -13
-12z"/>
<path d="M2189 2475 c24 -14 46 -23 48 -21 5 5 -71 46 -84 46 -4 0 12 -12 36
-25z"/>
<path d="M1180 2480 c-8 -5 -13 -10 -10 -11 30 -6 50 -4 47 5 -5 14 -20 17
-37 6z"/>
<path d="M1506 2481 c-3 -5 3 -11 13 -14 14 -3 18 -1 14 9 -6 16 -19 18 -27 5z"/>
<path d="M1211 2434 c0 -11 3 -14 6 -6 3 7 2 16 -1 19 -3 4 -6 -2 -5 -13z"/>
<path d="M1240 2430 c0 -5 5 -10 11 -10 5 0 7 5 4 10 -3 6 -8 10 -11 10 -2 0
-4 -4 -4 -10z"/>
<path d="M1270 2350 c0 -5 5 -10 11 -10 5 0 7 5 4 10 -3 6 -8 10 -11 10 -2 0
-4 -4 -4 -10z"/>
<path d="M870 2240 c0 -3 8 -15 18 -26 28 -33 42 -62 42 -90 0 -21 3 -24 13
-15 10 8 17 7 25 -1 8 -8 11 -4 9 16 -1 15 -9 32 -17 37 -12 9 -11 9 5 4 27
-10 56 -8 68 4 6 6 -5 14 -31 22 -23 6 -39 16 -36 20 3 5 -1 10 -8 10 -7 1
-17 2 -23 4 -5 1 -18 3 -28 3 -10 1 -16 6 -13 10 3 5 -1 9 -9 9 -8 0 -15 -3
-15 -7z"/>
<path d="M1918 2153 c6 -2 18 -2 25 0 6 3 1 5 -13 5 -14 0 -19 -2 -12 -5z"/>
<path d="M2067 2125 c-60 -13 -84 -25 -51 -25 44 -1 -17 -21 -81 -27 -58 -5
-65 -4 -59 11 5 12 0 16 -18 16 -13 0 -28 4 -33 9 -6 5 -77 5 -160 1 l-150 -7
140 -3 c118 -2 134 -4 103 -13 -21 -6 -38 -14 -38 -18 0 -5 6 -6 14 -3 8 3 17
0 21 -6 3 -6 3 -10 -2 -9 -4 1 -64 1 -133 0 -117 -1 -123 -2 -96 -16 15 -8 51
-15 79 -15 55 0 59 -8 7 -15 -42 -5 -48 -13 -19 -24 15 -5 26 -5 30 1 4 6 9
-5 13 -24 5 -25 15 -37 42 -50 19 -10 42 -18 50 -18 8 0 12 -4 9 -10 -3 -5 -1
-10 4 -10 6 0 11 -6 11 -14 0 -21 24 -37 76 -50 51 -13 72 -36 32 -35 -87 2
-118 -3 -118 -19 0 -12 -3 -13 -12 -4 -19 19 -24 15 -38 -28 -7 -22 -17 -40
-21 -40 -19 0 -38 -33 -34 -59 2 -18 -2 -28 -11 -29 -8 -1 -21 -3 -29 -4 -16
-1 -18 -8 -9 -32 5 -14 8 -14 27 -1 28 19 41 19 33 -1 -4 -10 -2 -13 6 -8 8 5
9 2 5 -9 -4 -11 -1 -17 9 -17 8 0 13 -4 10 -9 -3 -5 10 -16 29 -25 19 -9 38
-24 43 -33 9 -14 11 -14 21 5 7 12 20 22 31 22 10 0 22 5 25 11 4 6 13 8 21 5
8 -3 14 0 14 7 0 8 3 9 8 1 4 -6 15 -13 25 -17 14 -5 17 -3 13 11 -6 20 26 62
48 62 9 0 16 -4 16 -10 0 -5 -5 -10 -11 -10 -7 0 -10 -12 -7 -29 2 -17 1 -28
-4 -25 -4 3 -8 0 -8 -5 0 -6 -7 -11 -14 -11 -13 0 -13 -7 0 -51 13 -43 13 -53
2 -60 -7 -5 -20 -6 -28 -3 -18 7 -25 7 -64 -2 -27 -7 -29 -5 -23 21 3 16 3 35
0 42 -8 21 -32 -16 -33 -49 0 -20 -6 -27 -22 -30 -31 -4 -38 -47 -9 -55 27 -7
27 -33 1 -33 -11 0 -20 -4 -20 -10 0 -5 7 -10 15 -10 25 0 17 -27 -10 -34 -16
-4 -25 -13 -25 -25 0 -11 -8 -21 -17 -23 -13 -2 -18 -14 -19 -48 -1 -25 -4
-58 -7 -75 -3 -16 -8 -41 -10 -55 -6 -34 -26 -121 -33 -142 -6 -21 -30 -24
-38 -5 -3 6 -4 -12 -1 -41 2 -28 1 -52 -3 -53 -4 0 -15 -2 -25 -4 -9 -2 -15 1
-11 6 3 5 9 7 14 4 5 -3 5 8 0 24 -4 16 -7 31 -7 33 1 2 -3 -3 -9 -10 -10 -11
-13 -11 -17 0 -4 10 -6 10 -6 1 -1 -7 -6 -13 -12 -13 -5 0 -8 4 -5 9 3 5 -3
20 -15 32 -11 13 -18 18 -14 12 11 -23 14 -53 5 -58 -5 -3 -7 -12 -3 -20 3 -9
-1 -15 -11 -15 -9 0 -16 -4 -16 -10 0 -5 7 -7 15 -4 11 5 13 2 9 -9 -3 -9 -12
-13 -19 -11 -21 9 -27 36 -10 48 14 10 14 12 -5 13 -19 2 -21 -2 -17 -23 4
-21 1 -25 -14 -21 -11 3 -17 1 -13 -4 3 -5 -5 -9 -17 -9 -18 0 -19 2 -9 15 7
8 20 15 29 15 13 1 13 3 -4 16 -18 13 -21 13 -31 -1 -10 -13 -12 -12 -12 7 -2
47 -9 63 -29 62 -20 0 -24 20 -8 45 6 10 4 12 -6 6 -8 -5 -6 1 4 13 11 12 16
26 11 33 -4 7 -3 10 3 6 6 -4 11 16 12 53 1 32 -3 61 -8 64 -19 12 -41 -7 -57
-52 -10 -26 -20 -49 -23 -52 -4 -3 -6 -11 -7 -17 -3 -40 -5 -44 -16 -37 -7 4
-8 3 -4 -4 4 -6 0 -24 -7 -39 l-15 -27 -16 38 c-9 21 -21 56 -26 79 -6 23 -14
50 -17 61 -3 10 -1 16 3 13 5 -3 9 9 9 26 0 18 5 31 10 30 6 -1 10 17 10 40 0
36 3 42 19 39 16 -3 18 1 13 27 -4 17 -18 48 -32 71 -29 47 -31 54 -8 46 15
-6 15 -5 -1 13 -10 11 -22 19 -25 16 -4 -2 -7 4 -8 13 0 9 -5 31 -10 47 l-10
30 46 1 c25 0 49 -5 53 -10 4 -6 8 0 9 14 0 23 1 23 9 5 5 -11 9 -14 9 -7 1 7
5 11 10 8 4 -3 28 15 51 40 41 43 42 47 24 57 -10 6 -30 13 -44 15 -43 6 -101
45 -114 77 -11 26 -19 31 -50 32 -25 1 -36 -3 -36 -14 0 -8 -4 -12 -10 -8 -5
3 -6 13 -3 23 9 26 35 52 44 46 18 -11 8 44 -11 66 -11 13 -20 27 -20 32 0 4
-8 17 -17 27 -32 36 -43 50 -43 59 0 5 -9 17 -20 27 -11 10 -20 13 -20 7 0 -6
6 -12 12 -14 10 -4 10 -10 0 -32 -10 -22 -10 -26 0 -20 9 6 9 3 -1 -9 -10 -13
-11 -32 -6 -74 4 -32 9 -74 10 -93 5 -85 18 -155 25 -135 6 15 9 10 14 -25 14
-86 14 -98 0 -93 -13 5 -13 5 6 -167 5 -47 17 -152 25 -233 9 -81 22 -162 30
-180 7 -18 16 -61 19 -97 3 -36 9 -76 12 -90 3 -14 8 -43 10 -64 5 -51 25 -80
73 -111 46 -29 165 -69 183 -62 7 3 3 6 -9 6 -23 1 -36 15 -38 43 -1 10 3 14
9 11 6 -4 4 1 -4 11 -14 17 -13 18 18 12 17 -3 45 -8 60 -11 25 -5 29 -11 30
-40 1 -27 -3 -34 -21 -38 -19 -3 -18 -4 3 -3 18 1 29 10 39 34 12 27 20 32 48
32 31 0 34 -2 31 -27 -2 -22 -11 -30 -43 -40 -35 -11 -14 -12 150 -9 209 5
304 23 396 72 91 50 94 57 119 268 5 49 17 108 25 133 16 45 20 151 7 168 -4
6 -14 11 -22 13 -11 1 -9 -2 4 -13 17 -12 18 -18 8 -40 -15 -32 -15 -38 0 -29
7 4 8 3 4 -5 -10 -15 -29 -3 -22 15 7 18 -2 18 -21 -1 -8 -9 -18 -13 -21 -10
-4 3 0 10 8 15 8 6 10 10 4 10 -6 0 -17 -7 -24 -15 -16 -19 -26 -19 -34 1 -5
14 -4 15 8 5 24 -20 27 4 3 29 -16 18 -17 22 -4 17 24 -9 33 14 11 30 -18 13
-17 14 9 8 22 -6 26 -4 21 9 -5 12 -2 15 12 10 19 -7 19 -6 0 8 -17 13 -17 15
-1 31 18 19 45 23 45 6 0 -5 -3 -8 -7 -6 -5 3 -9 -6 -9 -19 -1 -13 -9 -31 -19
-40 -13 -14 -14 -19 -3 -25 10 -7 9 -9 -3 -9 -9 0 -22 -7 -29 -15 -8 -9 -8
-15 -2 -15 6 0 12 5 14 11 3 9 11 8 28 -1 21 -11 23 -11 14 1 -10 14 -13 40
-4 37 3 -1 15 4 28 11 23 12 31 37 9 28 -9 -3 -13 2 -12 14 2 22 15 39 15 19
0 -9 3 -10 9 -5 5 6 12 48 15 95 4 47 9 110 11 140 4 42 3 50 -4 33 -6 -13
-15 -23 -20 -23 -6 0 -8 -6 -5 -14 3 -8 0 -17 -5 -21 -6 -3 -9 -10 -6 -15 3
-5 -7 -18 -21 -29 -15 -12 -22 -21 -16 -21 6 0 14 5 17 10 3 6 12 10 18 10 9
0 9 -2 1 -8 -16 -10 -54 -88 -47 -96 4 -3 1 -6 -5 -6 -7 0 -12 -5 -12 -11 0
-5 4 -7 10 -4 15 9 54 15 46 7 -4 -4 -11 -7 -14 -8 -28 -3 -61 -18 -57 -24 3
-5 0 -12 -6 -15 -5 -4 -8 -13 -5 -21 3 -8 -1 -14 -10 -14 -11 0 -14 6 -10 16
3 8 2 12 -4 9 -6 -3 -10 1 -10 10 0 10 -5 13 -12 9 -6 -4 -8 -3 -4 4 3 6 15 9
26 7 11 -2 20 0 20 6 0 5 -6 9 -14 9 -8 0 -16 7 -20 15 -3 8 -1 15 4 15 6 0
10 -4 10 -8 0 -5 6 -9 14 -9 11 0 12 4 3 18 -6 10 -15 15 -19 13 -4 -3 -8 2
-8 10 0 8 5 18 11 21 6 4 8 14 5 22 -3 8 -1 11 4 8 9 -5 15 24 11 48 -1 5 8
20 19 34 11 14 20 30 20 35 0 13 26 38 34 33 3 -3 2 1 -4 7 -5 7 -10 19 -10
27 0 13 2 13 9 3 10 -17 21 6 27 56 1 18 6 37 10 44 4 7 3 8 -5 4 -8 -5 -10 0
-7 18 3 15 1 24 -5 21 -5 -3 -6 1 -3 9 3 9 11 13 18 10 6 -3 3 1 -7 9 -18 15
-18 15 0 20 17 4 17 5 -1 6 -15 1 -16 4 -6 15 6 8 19 12 28 10 13 -4 13 -3 -2
6 -14 10 -20 10 -26 0 -6 -10 -9 -10 -15 0 -4 7 -1 16 6 21 8 5 9 9 4 9 -6 0
-16 9 -23 21 -8 12 -9 18 -3 14 13 -7 15 7 2 20 -4 6 -11 24 -15 40 -5 22 -4
26 4 15 8 -13 10 -12 10 3 0 12 -6 17 -17 15 -17 -3 -46 -64 -58 -120 -4 -21
-11 -28 -29 -28 -14 0 -26 -6 -29 -12 -4 -10 -7 -10 -18 0 -9 8 -10 15 -4 20
9 7 11 14 18 67 2 11 -1 26 -6 33 -6 8 -5 12 2 12 7 0 9 5 6 10 -3 6 -1 10 4
10 6 0 11 9 11 20 0 11 6 20 13 20 7 0 20 9 30 20 9 11 12 20 7 20 -6 0 -10 5
-10 11 0 5 4 7 10 4 6 -3 7 1 4 10 -4 9 2 37 12 63 10 26 17 53 15 60 -1 8 5
23 15 33 16 18 16 19 -7 20 -13 0 -18 3 -11 6 31 12 7 19 -39 11 -28 -5 -54
-7 -57 -4 -9 10 2 15 44 22 21 3 41 8 43 10 11 10 -8 10 -62 -1z m-270 -61
c-3 -3 -12 -4 -19 -1 -8 3 -5 6 6 6 11 1 17 -2 13 -5z m206 -21 c-7 -2 -19 -2
-25 0 -7 3 -2 5 12 5 14 0 19 -2 13 -5z m22 -44 c4 -5 16 -9 28 -10 12 0 17
-3 10 -5 -7 -4 -9 -14 -3 -33 14 -49 -42 -114 -89 -102 -14 3 -39 6 -54 5 -21
-1 -35 7 -53 31 -13 18 -24 35 -24 38 0 15 58 62 88 73 42 14 90 16 97 3z
m-60 -367 c-3 -3 -11 0 -18 7 -9 10 -8 11 6 5 10 -3 15 -9 12 -12z m125 8 c0
-5 -4 -10 -10 -10 -5 0 -10 5 -10 10 0 6 5 10 10 10 6 0 10 -4 10 -10z m-193
-42 c-3 -8 -6 -5 -6 6 -1 11 2 17 5 13 3 -3 4 -12 1 -19z m73 8 c0 -3 -4 -8
-10 -11 -5 -3 -10 -1 -10 4 0 6 5 11 10 11 6 0 10 -2 10 -4z m210 -25 c0 -5 7
-17 16 -25 8 -9 11 -16 6 -16 -5 0 -17 11 -26 25 -9 14 -12 25 -6 25 5 0 10
-4 10 -9z m-330 -31 c0 -14 33 -12 49 3 10 10 12 8 9 -7 -5 -28 -50 -32 -66
-6 -7 12 -8 20 -2 20 5 0 10 -4 10 -10z m70 -230 c0 -5 -9 -10 -21 -10 -11 0
-17 5 -14 10 3 6 13 10 21 10 8 0 14 -4 14 -10z m98 -27 c-2 -10 -10 -18 -18
-19 -33 -2 -40 -4 -40 -13 0 -4 11 -6 25 -3 18 3 25 0 25 -11 0 -8 -11 -18
-25 -21 -38 -10 -30 -26 10 -19 30 5 35 3 35 -13 0 -15 -9 -20 -43 -22 -23 -1
-50 -5 -59 -8 -16 -5 -18 3 -18 65 l0 70 33 4 c71 9 79 8 75 -10z m-128 -18
c0 -10 -10 -15 -30 -15 -16 0 -30 -4 -30 -10 0 -5 11 -10 25 -10 16 0 25 -6
25 -15 0 -9 -9 -15 -25 -15 -14 0 -25 -4 -25 -10 0 -5 14 -10 30 -10 40 0 39
-26 -1 -34 -76 -15 -79 -13 -79 57 0 35 3 67 7 70 3 4 28 7 55 7 36 0 48 -4
48 -15z m185 -193 c-3 -3 -11 0 -18 7 -9 10 -8 11 6 5 10 -3 15 -9 12 -12z
m15 -49 c0 -19 -13 -9 -16 12 -1 8 2 13 7 9 5 -3 9 -12 9 -21z m-42 3 c-7 -8
-15 -12 -17 -11 -5 6 10 25 20 25 5 0 4 -6 -3 -14z m-48 -26 c0 -5 -2 -10 -4
-10 -3 0 -8 5 -11 10 -3 6 -1 10 4 10 6 0 11 -4 11 -10z m157 -85 c-7 -5 -18
-18 -24 -29 -9 -16 -11 -17 -16 -2 -4 10 -3 15 3 11 6 -3 10 -1 10 4 0 6 -5
11 -11 11 -5 0 -8 4 -5 9 3 5 17 8 31 7 19 -1 22 -3 12 -11z m17 -56 c-3 -5
-10 -7 -15 -3 -5 3 -7 10 -3 15 3 5 10 7 15 3 5 -3 7 -10 3 -15z m-624 -119
c0 -5 -4 -10 -10 -10 -5 0 -10 5 -10 10 0 6 5 10 10 10 6 0 10 -4 10 -10z m97
-116 c-3 -3 -12 -4 -19 -1 -8 3 -5 6 6 6 11 1 17 -2 13 -5z m-242 -94 c-3 -5
-2 -10 4 -10 5 0 11 5 13 11 2 7 10 4 18 -7 11 -13 12 -16 1 -10 -7 5 -16 4
-20 -2 -4 -6 -12 -7 -20 -3 -12 8 -8 31 5 31 3 0 2 -4 -1 -10z m685 -25 c-11
-13 -10 -14 6 -8 18 7 18 6 3 -17 -9 -13 -21 -26 -27 -28 -20 -6 -19 33 2 54
24 24 36 23 16 -1z m-450 -97 c0 -34 -13 -29 -25 10 -5 16 -2 22 9 22 11 0 16
-10 16 -32z"/>
<path d="M1933 2123 c9 -2 23 -2 30 0 6 3 -1 5 -18 5 -16 0 -22 -2 -12 -5z"/>
<path d="M2192 2121 c-11 -7 -11 -9 2 -14 10 -4 16 -1 16 8 0 17 -1 17 -18 6z"/>
<path d="M1955 2100 c-8 -13 5 -13 25 0 13 8 13 10 -2 10 -9 0 -20 -4 -23 -10z"/>
<path d="M1648 2068 c9 -9 15 -9 24 0 9 9 7 12 -12 12 -19 0 -21 -3 -12 -12z"/>
<path d="M2285 1837 c-4 -15 -5 -36 -2 -46 3 -14 1 -18 -9 -14 -8 3 -14 -1
-14 -10 0 -8 -6 -18 -12 -20 -10 -4 -9 -6 1 -6 11 -1 11 -5 -2 -24 -14 -21
-13 -23 9 -34 21 -10 24 -9 24 7 0 11 4 21 9 24 4 3 7 27 6 53 -1 27 1 50 5
53 4 3 4 14 0 25 -7 18 -8 17 -15 -8z"/>
<path d="M2228 1673 c7 -3 16 -2 19 1 4 3 -2 6 -13 5 -11 0 -14 -3 -6 -6z"/>
<path d="M2130 1290 c0 -5 5 -10 10 -10 6 0 10 5 10 10 0 6 -4 10 -10 10 -5 0
-10 -4 -10 -10z"/>
<path d="M2145 1230 c3 -5 8 -10 11 -10 2 0 4 5 4 10 0 6 -5 10 -11 10 -5 0
-7 -4 -4 -10z"/>
<path d="M2125 1180 c3 -5 8 -10 11 -10 2 0 4 5 4 10 0 6 -5 10 -11 10 -5 0
-7 -4 -4 -10z"/>
<path d="M1576 1077 c3 -10 9 -15 12 -12 3 3 0 11 -7 18 -10 9 -11 8 -5 -6z"/>
<path d="M1345 830 c3 -5 8 -10 11 -10 2 0 4 5 4 10 0 6 -5 10 -11 10 -5 0 -7
-4 -4 -10z"/>
<path d="M1380 819 c0 -5 5 -7 10 -4 6 3 10 8 10 11 0 2 -4 4 -10 4 -5 0 -10
-5 -10 -11z"/>
<path d="M1366 782 c26 -25 50 -25 27 0 -9 10 -23 18 -31 18 -12 0 -12 -4 4
-18z"/>
</g>
</svg>
