<?xml version="1.0" standalone="no"?>
<!DOCTYPE svg PUBLIC "-//W3C//DTD SVG 20010904//EN"
 "http://www.w3.org/TR/2001/REC-SVG-20010904/DTD/svg10.dtd">
<svg version="1.0" xmlns="http://www.w3.org/2000/svg"
 width="328.000000pt" height="328.000000pt" viewBox="0 0 328.000000 328.000000"
 preserveAspectRatio="xMidYMid meet">

<g transform="translate(0.000000,328.000000) scale(0.100000,-0.100000)"
fill="#000000" stroke="none">
<path d="M1168 2456 c-4 -20 0 -26 20 -31 13 -3 27 -4 30 0 3 3 -2 5 -11 5
-10 0 -17 8 -17 19 0 30 -17 34 -22 7z"/>
<path d="M1100 2451 c0 -5 5 -13 10 -16 6 -3 10 -2 10 4 0 5 -4 13 -10 16 -5
3 -10 2 -10 -4z"/>
<path d="M1137 2273 c-4 -3 -7 -11 -7 -17 0 -6 5 -5 12 2 6 6 9 14 7 17 -3 3
-9 2 -12 -2z"/>
<path d="M872 2135 c12 -26 28 -34 28 -12 0 7 -9 18 -20 25 -18 11 -19 10 -8
-13z"/>
<path d="M2040 2156 c0 -2 7 -7 16 -10 8 -3 12 -2 9 4 -6 10 -25 14 -25 6z"/>
<path d="M1305 2120 c3 -5 13 -10 21 -10 8 0 14 5 14 10 0 6 -9 10 -21 10 -11
0 -17 -4 -14 -10z"/>
<path d="M930 2080 c29 -22 43 -25 38 -8 -3 7 -18 15 -34 20 l-29 7 25 -19z"/>
<path d="M910 2018 c0 -15 7 -45 15 -66 9 -21 15 -47 14 -57 -5 -47 3 -68 36
-100 31 -29 34 -36 25 -59 -11 -30 -25 -33 -39 -8 -10 16 -10 15 -10 -3 0 -11
6 -29 14 -39 8 -11 15 -34 15 -50 0 -38 28 -188 37 -195 3 -3 3 10 -1 29 -11
50 -17 180 -10 191 9 15 45 -22 39 -40 -8 -26 -9 -252 -1 -311 4 -30 14 -102
23 -160 9 -63 13 -134 10 -177 -5 -63 -3 -73 14 -85 15 -10 19 -29 23 -95 3
-46 10 -91 16 -102 12 -23 14 -161 2 -161 -4 0 -13 5 -19 11 -16 16 -26 -22
-14 -52 29 -76 167 -130 382 -149 242 -21 511 30 586 111 25 28 46 77 37 90
-3 6 -2 15 3 22 6 7 10 35 11 62 3 78 13 144 22 150 12 8 24 107 34 275 l5 85
-9 -70 c-5 -38 -14 -106 -20 -150 -5 -44 -21 -114 -33 -155 -14 -45 -22 -91
-19 -112 2 -20 -1 -52 -7 -70 -13 -38 -49 -67 -61 -48 -10 16 -2 96 15 145 8
22 19 112 25 200 6 88 15 178 20 200 5 22 11 67 14 100 3 33 10 87 16 120 28
155 32 193 26 240 -17 126 -14 180 10 171 7 -3 15 1 18 9 3 9 0 12 -8 9 -7 -3
-13 1 -14 8 -1 7 -3 24 -5 38 -2 14 0 32 5 41 6 13 2 18 -17 23 -14 4 -25 13
-25 21 0 24 -23 66 -34 62 -6 -2 -10 -13 -8 -25 2 -16 -1 -19 -16 -15 -14 3
-21 -2 -26 -20 -13 -53 -56 -71 -56 -24 0 21 -53 67 -77 67 -6 0 -22 -12 -36
-26 -14 -14 -34 -24 -44 -22 -12 2 -17 -2 -15 -12 1 -8 -11 1 -28 20 -34 40
-32 45 -31 -77 0 -53 -3 -63 -18 -63 -9 0 -22 -5 -29 -12 -9 -9 -12 -9 -12 0
0 6 -7 9 -15 6 -18 -7 -20 12 -2 19 11 5 -5 23 -60 67 -16 13 -26 -4 -18 -29
7 -23 -12 -38 -28 -22 -16 16 -34 14 -41 -5 -8 -21 13 -47 31 -39 17 6 53 -11
53 -25 0 -6 -7 -10 -15 -10 -8 0 -15 6 -15 14 0 9 -7 12 -20 9 -25 -7 -25 -7
5 -38 22 -21 25 -31 19 -62 -8 -47 -12 -53 -29 -53 -21 0 -26 -30 -10 -53 24
-34 19 -84 -10 -103 -35 -23 -33 -62 3 -52 15 4 32 75 32 136 0 34 2 62 5 62
3 0 14 -9 25 -20 23 -23 33 -131 12 -138 -7 -2 -12 -15 -12 -28 0 -22 4 -24
55 -24 42 0 55 -3 55 -15 0 -9 -9 -15 -25 -15 -14 0 -25 -4 -25 -10 0 -5 9
-10 20 -10 11 0 20 -7 20 -15 0 -8 -9 -15 -20 -15 -15 0 -20 -7 -20 -29 0 -16
6 -36 13 -43 7 -7 19 -35 26 -63 7 -27 17 -62 23 -76 5 -14 6 -38 2 -53 -5
-21 -9 -24 -20 -15 -11 9 -14 7 -14 -9 0 -11 -3 -27 -6 -35 -4 -11 2 -17 18
-20 22 -4 22 -4 1 -6 -21 -1 -22 -5 -18 -76 4 -64 2 -75 -12 -75 -9 0 -13 3
-10 7 4 3 2 12 -4 19 -6 8 -9 20 -6 29 9 21 -5 26 -28 9 -10 -8 -14 -14 -8
-14 6 0 9 -14 7 -32 -1 -18 -3 -38 -3 -44 -1 -7 -8 -11 -17 -10 -9 0 -19 -5
-22 -13 -3 -10 2 -12 22 -7 25 6 26 5 20 -26 -4 -18 -6 -40 -6 -48 1 -8 5 -46
8 -84 8 -85 -2 -96 -87 -96 -85 0 -159 19 -200 51 -30 24 -38 26 -50 14 -20
-20 -65 -8 -78 21 -6 14 -11 56 -11 95 0 42 -5 78 -14 92 -8 13 -21 91 -31
182 -9 88 -23 189 -31 225 -11 51 -13 84 -5 149 5 46 5 96 1 112 -14 46 -2 72
31 67 37 -6 27 8 -17 22 -27 9 -33 15 -24 25 8 10 8 19 0 35 -9 16 -8 24 5 36
19 20 20 30 0 14 -12 -10 -15 -10 -15 4 0 9 -4 16 -9 16 -19 0 -33 82 -25 148
4 35 9 42 27 42 13 0 31 -6 42 -13 12 -8 30 -11 45 -7 24 7 23 8 -20 28 -25
12 -58 22 -73 22 -30 0 -77 39 -77 64 0 8 -5 16 -11 18 -6 2 -12 24 -14 50 -4
53 -21 92 -37 82 -5 -4 -14 0 -19 7 -6 10 -9 6 -9 -13z m1090 -312 c0 -8 3
-21 6 -30 4 -11 1 -16 -10 -16 -13 0 -16 -11 -15 -57 1 -131 -2 -193 -11 -193
-5 0 -12 17 -15 38 -3 20 -8 45 -10 54 -2 10 1 21 6 24 12 7 11 54 -1 54 -7 0
-7 6 0 19 5 11 10 35 10 55 0 19 3 41 6 50 8 20 34 21 34 2z m-108 -75 c-4
-10 -7 -11 -10 -3 -2 7 -10 12 -17 12 -17 0 -28 17 -20 30 9 15 54 -22 47 -39z
m-239 -56 c-3 -13 -9 -23 -13 -20 -4 2 -5 16 -3 30 3 13 9 23 13 20 4 -2 5
-16 3 -30z m197 -85 c7 -41 14 -91 17 -110 4 -34 6 -36 39 -32 44 5 45 -14 2
-33 l-33 -14 28 -1 c29 0 37 -17 12 -26 -23 -9 -18 -26 5 -19 15 5 20 2 20
-10 0 -9 -9 -19 -20 -22 -15 -4 -20 -14 -20 -42 0 -20 -9 -68 -20 -106 -21
-75 -22 -83 -21 -274 0 -75 -4 -132 -11 -145 -7 -12 -11 -48 -10 -81 3 -90 -8
-120 -44 -120 l-29 0 1 65 c0 36 2 79 3 95 1 17 0 89 -3 160 -3 72 -8 173 -10
225 -4 95 -23 190 -38 190 -14 0 -9 128 5 137 18 11 28 41 15 45 -12 4 29 128
46 141 6 4 19 5 29 3 14 -3 17 0 12 12 -4 9 -9 33 -11 52 l-5 35 15 -25 c8
-14 20 -59 26 -100z m58 95 c-3 -3 -9 2 -12 12 -6 14 -5 15 5 6 7 -7 10 -15 7
-18z m21 -29 c9 -11 9 -19 0 -34 -12 -19 -13 -19 -36 4 -13 13 -21 29 -18 34
9 15 41 12 54 -4z m159 -113 c1 -43 -2 -85 -7 -92 -6 -9 -6 -22 0 -32 6 -12 4
-19 -5 -22 -20 -8 -31 -75 -41 -252 -11 -198 -26 -350 -36 -360 -5 -5 -9 -37
-9 -71 0 -95 -9 -126 -34 -122 -19 3 -21 9 -20 73 1 158 23 385 37 385 5 0 7
-12 4 -28 -3 -15 -2 -34 4 -42 6 -10 9 1 9 35 0 28 7 120 15 205 8 85 16 180
19 211 10 133 25 189 49 189 8 0 13 -25 15 -77z m-338 57 c0 -5 -9 -24 -20
-42 -11 -18 -20 -45 -20 -60 0 -21 -5 -28 -20 -28 -14 0 -20 7 -20 22 0 12
-11 41 -25 65 l-26 43 25 0 c14 0 29 -7 34 -16 8 -15 11 -15 31 5 22 22 41 27
41 11z"/>
<path d="M2247 1901 c-14 -16 -34 -34 -44 -39 -23 -13 -11 -26 16 -17 18 5 66
73 58 81 -2 2 -15 -9 -30 -25z"/>
<path d="M1780 1890 c0 -5 5 -10 10 -10 6 0 10 5 10 10 0 6 -4 10 -10 10 -5 0
-10 -4 -10 -10z"/>
<path d="M1085 1751 c27 -30 50 -42 69 -35 22 9 20 24 -3 24 -11 0 -21 4 -23
9 -1 5 -16 13 -33 17 l-30 7 20 -22z"/>
<path d="M2226 1734 c-10 -25 1 -29 14 -5 6 12 7 21 1 21 -5 0 -12 -7 -15 -16z"/>
<path d="M1307 1693 c-12 -12 -7 -22 8 -17 8 4 15 10 15 15 0 11 -14 12 -23 2z"/>
<path d="M1428 1655 c33 -28 52 -31 70 -13 18 18 14 30 -6 17 -14 -9 -25 -8
-50 5 -44 23 -48 20 -14 -9z"/>
<path d="M962 1630 c0 -19 2 -27 5 -17 2 9 2 25 0 35 -3 9 -5 1 -5 -18z"/>
<path d="M2223 1625 c0 -22 2 -30 4 -17 2 12 2 30 0 40 -3 9 -5 -1 -4 -23z"/>
<path d="M1295 1631 c-3 -5 0 -13 6 -17 7 -4 9 -3 5 4 -3 5 0 13 6 15 9 4 10
6 1 6 -6 1 -14 -3 -18 -8z"/>
<path d="M2212 1510 c0 -19 2 -27 5 -17 2 9 2 25 0 35 -3 9 -5 1 -5 -18z"/>
<path d="M1189 1483 c-13 -16 -12 -17 4 -4 9 7 17 15 17 17 0 8 -8 3 -21 -13z"/>
<path d="M2206 1457 c3 -10 9 -15 12 -12 3 3 0 11 -7 18 -10 9 -11 8 -5 -6z"/>
<path d="M1205 1452 c-7 -5 -7 -18 1 -42 l12 -35 11 29 c17 43 4 68 -24 48z"/>
<path d="M1491 1434 c0 -11 3 -14 6 -6 3 7 2 16 -1 19 -3 4 -6 -2 -5 -13z"/>
<path d="M2192 1303 c-1 -17 -5 -40 -8 -50 -5 -14 -4 -15 5 -7 7 7 11 28 8 50
-3 35 -4 35 -5 7z"/>
<path d="M1390 1263 c1 -18 19 -35 29 -28 9 5 9 10 0 21 -12 15 -29 19 -29 7z"/>
<path d="M1226 1198 c2 -24 3 -53 3 -65 1 -13 6 -23 12 -23 8 0 10 18 7 55 -6
67 -26 97 -22 33z"/>
<path d="M2178 1185 c-2 -25 0 -45 4 -45 5 0 8 20 8 45 0 25 -2 45 -4 45 -2 0
-6 -20 -8 -45z"/>
<path d="M1587 1176 c-4 -27 -7 -61 -7 -75 l1 -26 13 25 c8 14 12 29 9 33 -3
5 5 18 18 30 l24 22 -22 3 c-12 2 -23 11 -25 20 -2 9 -7 -5 -11 -32z"/>
<path d="M1278 1203 c7 -3 16 -2 19 1 4 3 -2 6 -13 5 -11 0 -14 -3 -6 -6z"/>
<path d="M1420 1189 c-11 -8 -12 -12 -2 -16 6 -2 12 -12 12 -20 0 -22 6 -14
14 20 7 29 0 33 -24 16z"/>
<path d="M1275 1180 c3 -5 8 -10 11 -10 2 0 4 5 4 10 0 6 -5 10 -11 10 -5 0
-7 -4 -4 -10z"/>
<path d="M1236 1033 c7 -52 14 -54 14 -5 0 23 -4 42 -9 42 -5 0 -7 -17 -5 -37z"/>
<path d="M1587 1064 c-10 -11 -9 -54 2 -54 6 0 12 4 15 9 8 12 -8 54 -17 45z"/>
<path d="M1380 1030 c0 -5 5 -10 11 -10 5 0 7 5 4 10 -3 6 -8 10 -11 10 -2 0
-4 -4 -4 -10z"/>
<path d="M1400 980 c0 -5 5 -10 10 -10 6 0 10 5 10 10 0 6 -4 10 -10 10 -5 0
-10 -4 -10 -10z"/>
<path d="M1558 959 c-23 -39 -23 -45 3 -72 12 -12 19 -17 16 -11 -3 6 0 28 8
50 8 21 14 45 15 52 0 23 -25 12 -42 -19z"/>
<path d="M1387 945 c-8 -20 -4 -29 11 -24 5 2 6 13 2 23 -6 19 -7 19 -13 1z"/>
<path d="M1195 930 c3 -5 8 -10 11 -10 2 0 4 5 4 10 0 6 -5 10 -11 10 -5 0 -7
-4 -4 -10z"/>
<path d="M1201 894 c0 -11 3 -14 6 -6 3 7 2 16 -1 19 -3 4 -6 -2 -5 -13z"/>
<path d="M1373 870 c0 -22 2 -40 4 -40 10 0 35 32 29 37 -3 3 -1 12 5 20 8 8
8 13 1 13 -6 0 -17 2 -25 5 -11 5 -14 -4 -14 -35z"/>
<path d="M1317 827 c3 -15 9 -27 14 -27 13 0 11 13 -5 35 -13 18 -14 18 -9 -8z"/>
<path d="M1333 774 c-3 -8 -1 -20 5 -26 9 -9 9 -15 0 -25 -8 -10 -7 -12 4 -8
10 4 15 18 15 41 -1 36 -13 45 -24 18z"/>
<path d="M1257 704 c-13 -13 -8 -40 11 -57 16 -14 92 -20 92 -7 0 13 -25 60
-32 60 -4 0 -5 -6 -2 -14 10 -26 -24 -26 -43 0 -10 14 -22 22 -26 18z"/>
</g>
</svg>
