<?xml version="1.0" standalone="no"?>
<!DOCTYPE svg PUBLIC "-//W3C//DTD SVG 20010904//EN"
 "http://www.w3.org/TR/2001/REC-SVG-20010904/DTD/svg10.dtd">
<svg version="1.0" xmlns="http://www.w3.org/2000/svg"
 width="328.000000pt" height="328.000000pt" viewBox="0 0 328.000000 328.000000"
 preserveAspectRatio="xMidYMid meet">

<g transform="translate(0.000000,328.000000) scale(0.100000,-0.100000)"
fill="#000000" stroke="none">
<path d="M2002 2977 c-6 -7 -15 -25 -21 -40 -12 -32 2 -37 31 -10 15 14 18 14
18 1 0 -8 -9 -23 -20 -33 -11 -10 -32 -39 -47 -64 l-28 -46 -3 33 c-3 34 -22
35 -22 1 0 -27 -38 -25 -79 5 -18 14 -39 22 -46 20 -7 -3 -16 -1 -20 5 -3 6
-17 11 -31 11 -14 0 -34 9 -45 19 -26 24 -125 62 -173 66 -20 2 -43 11 -52 19
-8 9 -24 16 -34 16 -21 0 -72 -55 -100 -109 -11 -22 -25 -41 -32 -43 -9 -3 -8
-11 4 -30 19 -29 16 -38 -13 -31 -24 7 -46 42 -27 44 7 1 2 4 -11 8 -33 9 -37
25 -9 39 17 8 19 11 6 11 -9 1 -20 -4 -23 -10 -5 -7 -15 -3 -29 10 -17 16 -30
19 -61 15 -56 -8 -212 -68 -267 -103 -25 -16 -54 -31 -64 -33 -11 -2 -19 -8
-19 -14 0 -11 -51 -58 -70 -65 -14 -5 -8 -38 13 -69 16 -24 18 -29 21 -48 0
-5 12 -15 26 -22 14 -7 23 -15 21 -17 -6 -6 -88 38 -113 60 -13 11 -23 16 -23
11 0 -6 16 -23 36 -39 45 -36 51 -51 75 -208 11 -71 27 -143 36 -161 9 -17 25
-95 35 -174 10 -79 23 -153 30 -165 6 -12 12 -53 12 -92 0 -69 1 -70 33 -86
28 -14 33 -14 33 -2 0 8 5 11 10 8 6 -3 10 -27 10 -52 l0 -45 -25 16 c-36 24
-31 13 8 -16 17 -14 46 -28 62 -31 l30 -7 -27 15 c-30 17 -36 46 -15 64 10 8
17 7 25 -1 20 -20 26 1 14 47 -7 25 -12 55 -12 66 0 19 2 20 17 8 15 -13 16
-11 10 19 -4 20 -3 32 4 32 6 0 9 7 5 15 -3 8 -2 15 3 15 7 0 16 -31 26 -95 4
-25 18 -45 31 -45 15 0 17 10 14 47 -1 17 3 21 13 17 8 -3 18 0 22 6 4 6 15 8
26 5 11 -4 19 -2 19 4 0 6 -5 11 -12 11 -9 0 -9 3 -1 11 14 14 -6 39 -31 39
-19 0 -66 21 -66 30 0 4 11 13 25 20 18 10 22 16 13 22 -10 6 -10 8 0 8 21 0
4 17 -24 24 -28 7 -60 33 -51 42 5 5 58 11 115 13 22 1 32 6 32 17 0 8 5 12
10 9 6 -4 8 -11 5 -16 -4 -5 3 -9 14 -9 11 0 23 -5 26 -10 4 -6 14 -10 23 -9
38 3 44 -1 40 -26 -6 -31 9 -33 22 -2 6 16 9 17 9 5 1 -9 -3 -19 -9 -23 -5 -3
-7 -12 -3 -20 3 -9 -1 -15 -8 -15 -7 0 -2 -8 11 -17 38 -26 54 -43 40 -43 -7
0 -9 -7 -6 -16 3 -9 2 -12 -5 -9 -5 4 -16 2 -24 -5 -9 -7 -15 -8 -20 0 -3 5
-11 10 -17 10 -7 0 -6 -6 2 -15 8 -9 9 -15 2 -15 -6 0 -18 10 -26 22 -9 12
-16 17 -16 11 0 -20 41 -52 58 -46 11 5 14 2 9 -10 -5 -12 -1 -17 13 -17 10 0
22 -5 25 -10 4 -6 10 -8 14 -6 4 3 6 -12 5 -32 -3 -37 -3 -37 11 -12 8 14 14
19 15 11 0 -11 3 -11 15 -1 13 11 14 10 8 -5 -5 -14 -3 -17 10 -12 12 4 14 2
10 -10 -4 -10 -2 -14 4 -10 6 4 10 -1 9 -11 -1 -11 8 -18 24 -20 13 -2 46 -12
72 -23 41 -16 48 -16 48 -4 0 10 10 15 30 15 29 0 30 -2 31 -42 1 -65 5 -119
13 -155 7 -32 10 -33 59 -35 67 -2 91 1 94 10 2 4 28 5 58 4 38 -3 55 -8 55
-18 0 -17 -32 -34 -65 -34 -14 0 -24 -4 -21 -8 3 -5 19 -7 36 -4 29 4 31 2 28
-19 -2 -19 -11 -25 -38 -30 -41 -7 -31 -12 23 -9 34 1 37 -1 37 -24 0 -16 -6
-26 -15 -26 -8 0 -15 -7 -15 -16 0 -11 5 -14 16 -10 12 4 15 2 10 -9 -3 -8 -1
-15 5 -15 15 0 32 52 19 60 -7 4 -10 37 -8 85 l3 79 65 12 c36 7 69 8 74 4 17
-17 -4 -39 -46 -48 l-43 -10 36 -1 c43 -1 59 -26 32 -47 -10 -7 -13 -14 -7
-14 23 0 48 42 49 83 1 35 4 41 19 39 17 -3 18 3 14 57 -2 34 -1 61 4 61 12 0
10 28 -2 35 -6 4 -17 1 -25 -5 -12 -10 -15 -8 -17 11 -1 13 -2 31 -3 39 0 8
-8 26 -17 40 -19 31 -30 97 -17 105 5 4 12 -1 15 -9 13 -35 44 -11 44 34 0 13
11 19 45 24 25 4 53 5 63 2 11 -4 27 2 40 14 22 21 37 27 27 10 -3 -5 -1 -10
4 -10 6 0 11 3 12 8 0 4 3 16 6 27 3 11 5 30 5 43 0 12 4 22 10 22 5 0 6 5 3
10 -4 6 -1 41 5 78 11 58 17 70 41 85 30 17 41 41 13 30 -12 -4 -14 0 -8 20
13 52 10 94 -6 93 -8 -1 -14 6 -12 14 2 8 6 31 9 50 6 39 20 61 37 58 17 -4
66 32 66 48 0 10 -12 6 -40 -12 -22 -15 -44 -23 -48 -19 -4 4 1 12 12 19 10 6
38 26 63 44 46 35 53 57 8 28 -18 -12 -36 -15 -56 -11 -27 6 -89 -4 -164 -26
-51 -16 -274 -48 -410 -59 -193 -16 -482 -13 -627 5 -22 3 -38 1 -38 -5 0 -10
21 -14 49 -11 7 2 20 -1 30 -5 19 -8 29 -10 59 -12 12 -1 22 -5 22 -9 0 -10
-82 -9 -145 2 -27 5 -53 8 -57 7 -5 -1 -8 5 -8 13 0 9 9 15 23 16 22 0 -14 10
-183 49 -52 12 -120 32 -150 45 -30 12 -64 25 -74 29 -41 14 -7 14 39 0 69
-22 215 -53 215 -45 0 3 -34 14 -75 24 -74 19 -179 55 -160 57 6 0 -1 9 -15
20 -19 16 -10 14 40 -8 69 -30 237 -75 251 -66 9 5 49 -17 49 -28 0 -4 -17 -5
-37 -2 -30 4 -34 3 -17 -5 39 -17 178 -30 193 -17 11 8 13 8 8 -1 -11 -17 49
-28 217 -38 86 -5 92 -1 14 10 -86 11 -50 21 70 19 64 -2 146 -3 181 -3 102
-1 61 -15 -62 -22 l-112 -5 120 -2 c83 -1 125 2 133 10 9 9 12 9 12 0 0 -14
71 -9 240 18 92 14 243 51 255 61 12 12 5 11 -95 -10 -47 -10 -87 -17 -89 -15
-10 9 15 24 41 24 54 0 190 40 263 77 79 40 115 63 98 63 -7 0 -9 13 -6 38 5
34 1 41 -36 75 -22 20 -64 48 -93 63 -29 15 -57 33 -61 40 -12 20 -101 62
-205 96 -51 17 -88 34 -82 38 8 5 1 15 -18 29 -34 24 -55 27 -70 8z m-575
-164 c-6 -13 -14 -23 -19 -23 -4 0 -8 -7 -8 -15 0 -21 -16 -19 -41 6 l-21 21
38 39 c37 38 38 38 49 16 8 -15 8 -29 2 -44z m784 41 c16 -20 -8 -19 -28 1
-10 11 -19 13 -27 6 -7 -6 -21 -8 -33 -5 -12 3 -32 1 -44 -6 -23 -11 -23 -11
-4 5 12 10 30 14 47 11 15 -3 30 -1 33 3 7 12 41 2 56 -15z m-1021 -24 c0 -5
-5 -10 -11 -10 -5 0 -7 5 -4 10 3 6 8 10 11 10 2 0 4 -4 4 -10z m560 -10 c0
-5 -2 -10 -4 -10 -3 0 -8 5 -11 10 -3 6 -1 10 4 10 6 0 11 -4 11 -10z m-584
-62 c-6 -5 -3 -8 10 -8 28 0 36 10 23 27 -7 8 -8 13 -1 13 5 0 15 -6 21 -14
10 -12 7 -18 -13 -31 -15 -10 -33 -14 -46 -10 -21 7 -24 14 -14 39 5 12 9 13
19 3 9 -9 10 -14 1 -19z m1162 -23 c71 -32 116 -70 99 -83 -19 -15 -75 -42
-87 -42 -20 0 2 22 37 36 40 17 36 29 -17 45 -42 13 -70 2 -70 -27 0 -22 -42
-44 -83 -44 -25 0 -36 -4 -31 -11 5 -8 1 -8 -12 0 -57 33 -70 62 -35 81 30 16
36 12 15 -11 -19 -21 -12 -48 16 -57 8 -3 10 0 6 7 -4 7 -3 18 3 25 7 8 10 20
9 27 -2 8 6 14 17 14 24 1 75 25 75 36 0 8 -26 19 -46 19 -8 0 -14 -7 -14 -16
0 -14 -3 -14 -16 -3 -14 11 -13 14 8 26 27 15 54 10 126 -22z m-1021 -11 c-3
-3 -12 -4 -19 -1 -8 3 -5 6 6 6 11 1 17 -2 13 -5z m730 -30 c-3 -3 -12 -4 -19
-1 -8 3 -5 6 6 6 11 1 17 -2 13 -5z m-27 -30 c0 -2 -12 -4 -27 -4 -21 0 -24 3
-14 9 13 8 41 5 41 -5z m-690 -30 c0 -8 -9 -14 -20 -14 -22 0 -26 10 -8 28 13
13 28 7 28 -14z m570 5 c0 -5 -4 -9 -10 -9 -5 0 -10 7 -10 16 0 8 5 12 10 9 6
-3 10 -10 10 -16z m-740 -24 c-7 -9 -20 -15 -29 -14 -32 3 -45 -4 -19 -10 40
-9 21 -30 -33 -35 -24 -2 -35 -2 -24 1 33 8 42 23 17 29 -34 9 -26 22 21 32
68 16 82 15 67 -3z m650 -25 c0 -5 -17 -10 -37 -11 -21 -1 -49 -4 -63 -8 -25
-7 -25 -7 -4 -19 12 -6 25 -8 30 -4 5 4 2 -1 -5 -10 -12 -16 -14 -16 -32 1
-11 10 -21 28 -24 40 -4 20 0 21 66 21 39 0 69 -4 69 -10z m473 -7 c-7 -2 -21
-2 -30 0 -10 3 -4 5 12 5 17 0 24 -2 18 -5z m-660 -58 c-3 -9 -8 -14 -10 -11
-3 3 -2 9 2 15 9 16 15 13 8 -4z m614 -1 c-3 -3 -12 -4 -19 -1 -8 3 -5 6 6 6
11 1 17 -2 13 -5z m120 0 c-3 -3 -12 -4 -19 -1 -8 3 -5 6 6 6 11 1 17 -2 13
-5z m-170 -46 c-3 -8 -6 -5 -6 6 -1 11 2 17 5 13 3 -3 4 -12 1 -19z m-647 -8
c0 -11 -66 -11 -155 0 -55 6 -50 7 48 9 65 0 107 -3 107 -9z m545 0 c-11 -5
-38 -8 -60 -8 -34 0 -36 1 -15 8 14 4 41 8 60 8 28 1 31 -1 15 -8z m-121 -25
c-23 -17 -34 -19 -34 -5 0 11 42 31 49 24 3 -2 -4 -11 -15 -19z m-554 -45 c10
-6 1 -8 -30 -4 -24 3 -47 7 -49 10 -9 8 65 3 79 -6z m523 -17 c-7 -2 -19 -2
-25 0 -7 3 -2 5 12 5 14 0 19 -2 13 -5z m493 -40 c-10 -10 -19 5 -10 18 6 11
8 11 12 0 2 -7 1 -15 -2 -18z m-1253 1 c-4 -11 -53 -7 -53 5 0 3 13 6 29 6 17
0 27 -5 24 -11z m17 -49 c19 -3 84 -10 145 -15 127 -12 145 -16 145 -36 0 -15
-15 -15 -170 5 -125 16 -160 23 -166 32 -3 5 -10 7 -15 4 -5 -4 -9 1 -9 10 0
11 6 15 18 11 9 -3 33 -8 52 -11z m115 -71 c28 -3 60 -6 73 -5 12 0 22 -3 22
-8 0 -5 8 -7 19 -4 11 3 21 -2 25 -12 5 -13 2 -15 -16 -9 -16 5 -20 3 -15 -9
3 -9 -1 -21 -9 -27 -8 -7 -14 -17 -14 -22 0 -5 10 0 22 11 16 16 25 18 35 10
15 -13 18 -49 3 -49 -5 0 -10 -6 -10 -12 1 -7 12 1 26 17 20 23 23 25 14 7 -6
-13 -9 -30 -6 -38 3 -9 -1 -29 -9 -45 -12 -22 -21 -28 -38 -25 -64 13 -84 13
-106 2 -27 -15 -86 1 -128 34 -24 19 -24 19 -4 32 16 10 18 15 8 27 -10 12 -9
14 5 9 11 -5 15 -2 14 10 -3 19 -36 30 -36 13 0 -7 -10 -5 -25 5 -28 19 -31
29 -11 37 10 4 13 1 9 -9 -3 -7 0 -14 6 -14 6 0 11 5 11 11 0 5 4 7 10 4 5 -3
18 -1 27 5 16 9 15 10 -4 5 -22 -6 -29 2 -24 29 1 4 -4 15 -11 24 -14 16 -5
16 137 -4z m-215 -24 c0 -5 -4 -10 -10 -10 -5 0 -10 5 -10 10 0 6 5 10 10 10
6 0 10 -4 10 -10z m1327 -6 c-3 -3 -12 -4 -19 -1 -8 3 -5 6 6 6 11 1 17 -2 13
-5z m-1327 -274 c0 -5 -5 -10 -11 -10 -5 0 -7 5 -4 10 3 6 8 10 11 10 2 0 4
-4 4 -10z m317 -12 c-3 -8 -6 -5 -6 6 -1 11 2 17 5 13 3 -3 4 -12 1 -19z
m-314 -68 c-3 -12 -8 -19 -11 -16 -5 6 5 36 12 36 2 0 2 -9 -1 -20z m925 -307
c22 -56 27 -80 19 -85 -17 -11 -47 -10 -47 2 0 16 -50 12 -56 -5 -4 -8 -19
-15 -34 -15 l-29 0 30 82 c17 46 36 86 42 90 31 20 45 6 75 -69z m-118 61 c0
-2 -10 -24 -22 -47 -13 -23 -25 -60 -28 -82 -4 -35 -9 -40 -32 -43 -26 -3 -28
0 -28 30 0 20 -12 51 -30 78 -16 25 -30 48 -30 53 0 4 13 7 30 7 22 0 33 -7
43 -27 l15 -27 15 30 c10 20 24 30 41 32 14 1 26 -1 26 -4z"/>
<path d="M1180 2208 c0 -18 2 -20 9 -9 8 13 12 13 27 0 11 -8 15 -9 10 -2 -4
7 -16 18 -27 23 -16 9 -19 7 -19 -12z"/>
<path d="M1250 2184 c0 -8 5 -12 10 -9 6 3 10 10 10 16 0 5 -4 9 -10 9 -5 0
-10 -7 -10 -16z"/>
<path d="M1426 2137 c3 -10 9 -15 12 -12 3 3 0 11 -7 18 -10 9 -11 8 -5 -6z"/>
<path d="M1417 2057 c-7 -19 23 -32 35 -15 11 18 10 28 -2 28 -5 0 -10 -6 -10
-12 0 -10 -2 -10 -9 0 -7 11 -9 11 -14 -1z"/>
<path d="M1945 1527 c-4 -10 -5 -21 -1 -24 10 -10 18 4 13 24 -4 17 -4 17 -12
0z"/>
<path d="M1770 2880 c14 -9 129 -15 119 -6 -2 2 -33 6 -69 10 -44 4 -60 3 -50
-4z"/>
<path d="M2370 2460 c0 -13 11 -13 30 0 12 8 11 10 -7 10 -13 0 -23 -4 -23
-10z"/>
<path d="M2513 2313 c-15 -5 -17 -23 -4 -23 5 0 11 7 15 15 3 8 4 15 3 14 -1
0 -8 -3 -14 -6z"/>
<path d="M1235 1770 c-3 -5 -1 -10 4 -10 6 0 11 5 11 10 0 6 -2 10 -4 10 -3 0
-8 -4 -11 -10z"/>
<path d="M1303 1645 c-3 -9 -3 -19 1 -22 3 -4 6 1 6 10 0 8 6 18 13 20 9 4 9
6 -1 6 -7 1 -15 -6 -19 -14z"/>
<path d="M2220 1508 c-19 -6 -30 -12 -24 -15 7 -2 27 3 45 11 39 17 29 19 -21
4z"/>
<path d="M1105 1500 c3 -5 8 -10 11 -10 2 0 4 5 4 10 0 6 -5 10 -11 10 -5 0
-7 -4 -4 -10z"/>
<path d="M980 1396 c0 -2 7 -7 16 -10 8 -3 12 -2 9 4 -6 10 -25 14 -25 6z"/>
<path d="M2176 1333 c-4 -9 -3 -20 2 -25 6 -6 11 1 14 16 6 29 -6 35 -16 9z"/>
<path d="M2205 1330 c-3 -5 1 -10 9 -10 8 0 18 5 21 10 3 6 -1 10 -9 10 -8 0
-18 -4 -21 -10z"/>
<path d="M1820 1320 c0 -5 -16 -10 -35 -10 -19 0 -35 -5 -35 -10 0 -6 6 -10
13 -9 6 1 20 1 30 0 26 -2 18 -44 -10 -51 -18 -4 -19 -8 -10 -20 7 -8 22 -15
35 -16 21 -1 22 3 22 63 0 35 -2 63 -5 63 -3 0 -5 -4 -5 -10z"/>
<path d="M2068 1273 c7 -3 16 -2 19 1 4 3 -2 6 -13 5 -11 0 -14 -3 -6 -6z"/>
<path d="M2065 1210 l-30 -8 35 -1 c19 0 42 4 50 9 12 8 11 10 -5 9 -11 -1
-33 -5 -50 -9z"/>
<path d="M1868 1183 c12 -2 30 -2 40 0 9 3 -1 5 -23 4 -22 0 -30 -2 -17 -4z"/>
</g>
</svg>
